Coordinates
version=1
nRows=17
nColumns=40
inDegrees=yes
endheader
time	pelvis_tilt	pelvis_list	pelvis_rotation	pelvis_tx	pelvis_ty	pelvis_tz	hip_flexion_r	hip_adduction_r	hip_rotation_r	knee_angle_r	knee_angle_r_beta	ankle_angle_r	subtalar_angle_r	mtp_angle_r	hip_flexion_l	hip_adduction_l	hip_rotation_l	knee_angle_l	knee_angle_l_beta	ankle_angle_l	subtalar_angle_l	mtp_angle_l	lumbar_extension	lumbar_bending	lumbar_rotation	arm_flex_r	arm_add_r	arm_rot_r	elbow_flex_r	pro_sup_r	wrist_flex_r	wrist_dev_r	arm_flex_l	arm_add_l	arm_rot_l	elbow_flex_l	pro_sup_l	wrist_flex_l	wrist_dev_l
1760625076.93000007	     -0.00643600	      0.04053051	     -0.01220230	      0.00466397	      0.92452283	      0.01257711	     80.00000000	     -7.00000000	      0.00000000	     80.00000000	      1.39626340	      0.00000000	      0.00000000	      0.00000000	     80.00000000	     -7.00000000	      0.00000000	     80.00000000	      1.39626340	      0.00000000	      0.00000000	      0.00000000	     -5.85125201	      1.65603393	     -0.92062472	      8.84084407	    -11.76412518	     -0.39827407	     23.98411715	      0.13606799	    -24.22774449	      4.26114789	      7.06080483	      0.69017804	     -1.07805365	      0.00000000	      0.00623208	     -1.14917400	      0.86933968
1760625076.96399999	      0.00276555	      0.03650812	     -0.00095410	      0.00299212	      0.92542243	      0.01204565	     80.00000000	     -7.00000000	      0.00000000	     80.00000000	      1.39626340	      0.00000000	      0.00000000	      0.00000000	     80.00000000	     -7.00000000	      0.00000000	     80.00000000	      1.39626340	      0.00000000	      0.00000000	      0.00000000	     -5.84326766	      1.60949600	     -0.84329841	      8.89464055	    -11.94505863	     -0.46895993	     23.97847461	      0.14534947	    -24.31057225	      4.44184603	      7.01995903	      0.61595946	     -1.00867970	      0.00000000	      0.00000000	     -1.12130653	      0.89251474
1760625076.99699998	     -0.03385841	      0.03312514	      0.00745066	      0.00318999	      0.92671205	      0.01166845	     80.00000000	     -7.00000000	      0.00000000	     80.00000000	      1.39626340	      0.00000000	      0.00000000	      0.00000000	     80.00000000	     -7.00000000	      0.00000000	     80.00000000	      1.39626340	      0.00000000	      0.00000000	      0.00000000	     -5.63268166	      1.57376568	     -0.94429973	      8.73477839	    -11.96807426	     -0.48958531	     24.09224281	      0.32034382	    -24.41908254	      4.53116476	      6.84548850	      0.53981983	     -1.11931130	      0.00000000	      0.02568747	     -1.13201093	      0.87097560
1760625077.02999997	     -0.03232558	      0.02987329	      0.01816113	      0.00356698	      0.92737353	      0.01229466	     80.00000000	     -7.00000000	      0.00000000	     80.00000000	      1.39626340	      0.00000000	      0.00000000	      0.00000000	     80.00000000	     -7.00000000	      0.00000000	     80.00000000	      1.39626340	      0.00000000	      0.00000000	      0.00000000	     -5.54927300	      1.57004029	     -0.92060717	      8.56661350	    -12.01752344	     -0.68956376	     24.77528473	      0.44389465	    -25.06184485	      4.52494484	      6.72993166	      0.50547208	     -1.11412916	      0.00000000	      0.11667985	     -1.12063489	      0.88685583
1760625077.06399989	     -0.04655242	      0.02733095	      0.01641497	      0.00357254	      0.92844384	      0.01269819	     80.00000000	     -7.00000000	      0.00000000	     80.00000000	      1.39626340	      0.00000000	      0.00000000	      0.00000000	     80.00000000	     -7.00000000	      0.00000000	     80.00000000	      1.39626340	      0.00000000	      0.00000000	      0.00000000	     -5.52381632	      1.55569975	     -0.95867172	      8.51436410	    -12.08090495	     -0.64136421	     25.18946144	      0.43269734	    -25.44298179	      4.49318357	      6.67400973	      0.46777800	     -1.17773770	      0.00000000	      0.19597569	     -1.14483012	      0.87415644
1760625077.09699988	     -0.06995247	      0.02507399	      0.01475322	      0.00399146	      0.92859564	      0.01200341	     80.00000000	     -7.00000000	      0.00000000	     80.00000000	      1.39626340	      0.00000000	      0.00000000	      0.00000000	     80.00000000	     -7.00000000	      0.00000000	     80.00000000	      1.39626340	      0.00000000	      0.00000000	      0.00000000	     -5.43912997	      1.57264331	     -1.04723271	      8.31277120	    -12.13851772	     -0.56012455	     25.13196619	      0.57225928	    -25.34584693	      4.56557310	      6.53185241	      0.45458626	     -1.25203909	      0.00000000	      0.43745130	     -1.17889394	      0.81231089
1760625077.13100004	     -0.09900753	      0.02075043	      0.01342518	      0.00486408	      0.92904166	      0.01156672	     80.00000000	     -7.00000000	      0.00000000	     80.00000000	      1.39626340	      0.00000000	      0.00000000	      0.00000000	     80.00000000	     -7.00000000	      0.00000000	     80.00000000	      1.39626340	      0.00000000	      0.00000000	      0.00000000	     -5.39444317	      1.55341147	     -1.05155835	      8.28767295	    -12.15848967	     -0.54012219	     25.12025905	      0.53430200	    -25.34255267	      4.61339016	      6.45458865	      0.40402552	     -1.26835808	      0.00000000	      0.69561011	     -1.19367136	      0.77889619
1760625077.16400003	     -0.10890769	      0.02009839	      0.01212330	      0.00486369	      0.92997852	      0.01155610	     80.00000000	     -7.00000000	      0.00000000	     80.00000000	      1.39626340	      0.00000000	      0.00000000	      0.00000000	     80.00000000	     -7.00000000	      0.00000000	     80.00000000	      1.39626340	      0.00000000	      0.00000000	      0.00000000	     -5.22913395	      1.51362134	     -1.08759142	      8.16354804	    -12.18764678	     -0.54958689	     25.17318957	      0.56876439	    -25.42275802	      4.79517717	      6.28537582	      0.36754509	     -1.31151950	      0.00000000	      0.67571056	     -1.21597770	      0.73324533
1760625077.19799995	     -0.11439229	      0.01718880	      0.00739593	      0.00416264	      0.93048990	      0.01200445	     80.00000000	     -7.00000000	      0.00000000	     80.00000000	      1.39626340	      0.00000000	      0.00000000	      0.00000000	     80.00000000	     -7.00000000	      0.00000000	     80.00000000	      1.39626340	      0.00000000	      0.00000000	      0.00000000	     -5.19511394	      1.52819584	     -1.08325309	      8.06621618	    -12.23846295	     -0.71903619	     25.59064822	      0.62020695	    -25.81327622	      4.83944674	      6.24868550	      0.39819262	     -1.32702487	      0.00000000	      0.63852427	     -1.24462735	      0.69496300
1760625077.23099995	     -0.11309244	      0.01271225	      0.01389445	      0.00385733	      0.93073870	      0.01220073	     80.00000000	     -7.00000000	      0.00000000	     80.00000000	      1.39626340	      0.00000000	      0.00000000	      0.00000000	     80.00000000	     -7.00000000	      0.00000000	     80.00000000	      1.39626340	      0.00000000	      0.00000000	      0.00000000	     -5.22111726	      1.52176036	     -1.09784908	      8.07555880	    -12.22975539	     -0.72050788	     25.61379505	      0.62846697	    -25.80414727	      4.85017610	      6.26029143	      0.38758805	     -1.33812587	      0.00000000	      0.59333532	     -1.22683873	      0.69627355
1760625077.26500010	     -0.11184273	      0.01140494	      0.01751261	      0.00300152	      0.93051958	      0.01198173	     80.00000000	     -7.00000000	      0.00000000	     80.00000000	      1.39626340	      0.00000000	      0.00000000	      0.00000000	     80.00000000	     -7.00000000	      0.00000000	     80.00000000	      1.39626340	      0.00000000	      0.00000000	      0.00000000	     -5.19638260	      1.49601570	     -1.10534135	      7.98913118	    -12.20986546	     -0.69990843	     25.58417582	      0.69044984	    -25.77300074	      4.89935827	      6.23541124	      0.34578687	     -1.31537287	      0.00000000	      0.49299866	     -1.20705395	      0.69290658
1760625077.29800010	     -0.09645861	      0.01437259	      0.02858002	      0.00324069	      0.93039752	      0.01145994	     80.00000000	     -7.00000000	      0.00000000	     80.00000000	      1.39626340	      0.00000000	      0.00000000	      0.00000000	     80.00000000	     -7.00000000	      0.00000000	     80.00000000	      1.39626340	      0.00000000	      0.00000000	      0.00000000	     -5.20011565	      1.48642063	     -1.11142444	      7.97240821	    -12.24008346	     -0.70284096	     25.56676652	      0.69155357	    -25.75589130	      4.90674515	      6.22443083	      0.32220385	     -1.31377839	      0.00000000	      0.43060966	     -1.17669630	      0.70511227
1760625077.33200002	     -0.08941567	      0.00933719	      0.03840415	      0.00412578	      0.93041703	      0.01113416	     80.00000000	     -7.00000000	      0.00000000	     80.00000000	      1.39626340	      0.00000000	      0.00000000	      0.00000000	     80.00000000	     -7.00000000	      0.00000000	     80.00000000	      1.39626340	      0.00000000	      0.00000000	      0.00000000	     -5.12445219	      1.49240446	     -1.08951416	      7.89967965	    -12.30451161	     -0.65440417	     25.44639207	      0.69812199	    -25.59428162	      4.98223786	      6.15723321	      0.31678303	     -1.30643371	      0.00000000	      0.39333528	     -1.13712464	      0.71483359
1760625077.36500001	     -0.07599638	      0.01507068	      0.05410988	      0.00414052	      0.93046308	      0.01171603	     80.00000000	     -7.00000000	      0.00000000	     80.00000000	      1.39626340	      0.00000000	      0.00000000	      0.00000000	     80.00000000	     -7.00000000	      0.00000000	     80.00000000	      1.39626340	      0.00000000	      0.00000000	      0.00000000	     -4.97841844	      1.40370163	     -1.10150128	      7.68686897	    -12.21184880	     -0.59883842	     25.35506048	      0.86295219	    -25.39172220	      4.94450794	      5.99147263	      0.23517231	     -1.22629639	      0.00000000	      0.17736884	     -1.11784701	      0.75733751
1760625077.39899993	     -0.06456800	      0.01791247	      0.06750689	      0.00404448	      0.93086178	      0.01190081	     80.00000000	     -7.00000000	      0.00000000	     80.00000000	      1.39626340	      0.00000000	      0.00000000	      0.00000000	     80.00000000	     -7.00000000	      0.00000000	     80.00000000	      1.39626340	      0.00000000	      0.00000000	      0.00000000	     -4.93030821	      1.34507218	     -1.11973957	      7.61343318	    -12.11576041	     -0.49102824	     24.84513746	      0.78758330	    -24.84790973	      4.95523410	      5.96555894	      0.19138774	     -1.16818380	      0.00000000	      0.01326583	     -1.12997705	      0.75997569
1760625077.43199992	     -0.04832558	      0.01840873	      0.08783379	     -0.00016890	      0.93204566	      0.01167653	     80.00000000	     -7.00000000	      0.00000000	     80.00000000	      1.39626340	      0.00000000	      0.00000000	      0.00000000	     80.00000000	     -7.00000000	      0.00000000	     80.00000000	      1.39626340	      0.00000000	      0.00000000	      0.00000000	     -4.04333476	      1.21822680	     -1.12275500	      6.48503761	    -11.89437871	     -0.23544685	     22.35136437	      0.76270112	    -22.31463792	      5.31061342	      5.01635685	      0.11987210	     -1.23182935	      0.00000000	      0.00000000	     -1.06493347	      0.74585748
1760625077.46600008	     -0.04689279	      0.01885440	      0.09138668	     -0.00030662	      0.93246282	      0.01158724	     80.00000000	     -7.00000000	      0.00000000	     80.00000000	      1.39626340	      0.00000000	      0.00000000	      0.00000000	     80.00000000	     -7.00000000	      0.00000000	     80.00000000	      1.39626340	      0.00000000	      0.00000000	      0.00000000	     -3.96264407	      1.20638283	     -1.01690689	      6.50434544	    -11.90082725	     -0.27218186	     22.34042373	      0.67964430	    -22.36594362	      5.30407235	      4.94324686	      0.15021499	     -1.21822831	      0.00000000	      0.00000000	     -1.02645377	      0.76461355
